<?xml version="1.0" standalone="no"?><!DOCTYPE svg PUBLIC "-//W3C//DTD SVG 1.1//EN" "http://www.w3.org/Graphics/SVG/1.1/DTD/svg11.dtd"><svg t="1753172167623" class="icon" viewBox="0 0 1024 1024" version="1.1" xmlns="http://www.w3.org/2000/svg" p-id="1493" xmlns:xlink="http://www.w3.org/1999/xlink" width="200" height="200"><path d="M898.56 131.803429a43.154286 43.154286 0 0 1 36.790857 65.609142L469.942857 958.390857a137.289143 137.289143 0 0 1-117.028571 65.609143 43.154286 43.154286 0 0 1-36.864-65.609143l465.408-760.978286a137.289143 137.289143 0 0 1 117.028571-65.609142zM203.629714 223.085714c11.849143 76.946286 56.32 130.998857 133.12 162.157715-80.457143 47.616-124.854857 101.668571-133.12 162.230857C195.437714 472.064 151.990857 419.620571 73.142857 390.217143c81.993143-46.08 125.513143-101.741714 130.486857-167.131429zM508.489143 0c5.485714 36.059429 25.965714 61.44 61.44 76.068571-37.156571 22.308571-57.636571 47.616-61.44 76.068572-3.730286-35.401143-23.844571-59.977143-60.196572-73.728C486.107429 56.758857 506.148571 30.646857 508.489143 0z" p-id="1494"></path></svg>